<?xml version="1.0" encoding="UTF-8"?>
<svg xmlns="http://www.w3.org/2000/svg" xmlns:xlink="http://www.w3.org/1999/xlink" width="679.47pt" height="154.93pt" viewBox="0 0 679.47 154.93" version="1.1">
<defs>
<clipPath id="clip1">
  <path d="M 268 32 L 364 32 L 364 154.929688 L 268 154.929688 Z M 268 32 "/>
</clipPath>
<clipPath id="clip2">
  <path d="M 649 15 L 679.46875 15 L 679.46875 46 L 649 46 Z M 649 15 "/>
</clipPath>
</defs>
<g id="surface1">
<path style=" stroke:none;fill-rule:nonzero;fill:rgb(0%,0%,0%);fill-opacity:1;" d="M 0 146 C 3.734375 139.601563 11.199219 136.398438 18.132813 138 C 34.667969 139.601563 51.734375 139.601563 68.265625 137.46875 C 73.601563 136.933594 79.46875 136.933594 84.800781 137.46875 C 93.332031 138.53125 101.867188 139.066406 110.398438 139.601563 C 113.066406 139.601563 115.734375 140.132813 118.398438 140.667969 C 120.53125 141.199219 122.667969 142.800781 123.199219 144.933594 C 123.734375 147.601563 122.667969 150.265625 120 150.800781 C 117.867188 151.867188 115.199219 152.933594 112.53125 152.933594 C 103.46875 152.933594 94.398438 151.867188 84.800781 151.867188 C 76.800781 151.867188 68.800781 151.867188 60.800781 152.398438 C 49.601563 153.46875 38.933594 153.46875 27.734375 152.398438 C 21.867188 151.867188 15.46875 152.398438 9.601563 151.867188 C 5.867188 152.398438 2.132813 150.800781 0 148.132813 L 0 146 "/>
<path style=" stroke:none;fill-rule:nonzero;fill:rgb(0%,0%,0%);fill-opacity:1;" d="M 123.199219 37.199219 C 123.734375 44.132813 123.734375 51.066406 124.265625 58 C 124.265625 62.265625 124.265625 67.066406 123.734375 71.332031 C 122.667969 80.398438 122.667969 90 123.734375 99.597656 C 124.265625 103.867188 124.265625 107.601563 123.199219 111.867188 C 122.667969 117.734375 117.867188 122 112 121.46875 C 112 121.46875 112 121.46875 111.46875 121.46875 C 104.53125 120.933594 98.132813 119.867188 91.734375 118.800781 C 86.933594 117.199219 82.667969 114 80.53125 109.734375 C 77.867188 106 75.199219 101.734375 73.066406 98 C 69.332031 90.535156 64.53125 84.132813 58.667969 78.265625 C 55.46875 74.535156 52.265625 70.265625 49.601563 66 C 49.066406 64.933594 48.53125 63.867188 47.46875 62.800781 C 45.867188 61.199219 43.734375 60.667969 41.601563 61.734375 C 41.066406 62.265625 40.53125 62.800781 40 63.867188 C 39.46875 65.464844 39.46875 67.066406 39.46875 68.667969 C 39.46875 78.265625 38.933594 87.332031 38.933594 96.933594 C 38.933594 98.535156 38.398438 100.132813 37.867188 101.734375 C 35.734375 105.46875 35.734375 109.734375 37.332031 113.46875 C 38.398438 115.601563 37.332031 118.800781 35.199219 119.867188 C 34.667969 119.867188 34.132813 120.398438 34.132813 120.398438 C 27.199219 123.066406 19.199219 123.066406 12.800781 119.867188 C 9.066406 118.265625 6.933594 114.53125 6.933594 110.800781 C 6.933594 103.867188 6.398438 97.464844 6.398438 90.535156 C 5.867188 86.265625 7.46875 82 10.667969 79.332031 C 12.265625 78.265625 13.332031 76.667969 13.867188 75.066406 C 16 71.867188 16 68.132813 13.332031 65.464844 C 6.933594 57.464844 4.265625 47.335938 5.867188 37.199219 C 6.398438 30.265625 6.398438 23.867188 6.398438 16.933594 C 6.398438 15.335938 6.398438 13.734375 6.398438 12.132813 C 5.867188 8.933594 8 5.734375 11.199219 5.199219 C 12.265625 5.199219 13.332031 5.199219 13.867188 5.199219 C 19.199219 5.199219 24 4.132813 28.800781 2.535156 C 33.601563 0.398438 38.933594 2.535156 41.066406 6.800781 C 41.066406 7.335938 41.601563 7.335938 41.601563 7.867188 C 42.132813 9.46875 43.199219 11.066406 43.734375 13.199219 C 44.800781 16.398438 46.933594 18.535156 50.132813 19.601563 C 53.332031 20.667969 56 22.800781 57.601563 26 C 64 35.066406 70.398438 44.667969 76.800781 53.734375 C 78.933594 56.398438 81.066406 59.066406 83.734375 61.734375 C 86.398438 64.398438 88.53125 63.332031 89.066406 59.601563 C 90.132813 53.734375 90.132813 47.867188 90.132813 42 C 89.601563 32.933594 89.601563 23.867188 90.667969 14.265625 C 89.601563 9.46875 92.800781 4.667969 98.132813 3.601563 C 99.734375 3.601563 100.800781 3.601563 102.398438 3.601563 C 104.53125 3.601563 106.667969 3.601563 109.332031 4.132813 C 115.734375 3.601563 122.132813 8.398438 123.199219 14.800781 C 123.734375 17.46875 124.265625 20.132813 124.265625 22.800781 C 123.199219 27.066406 123.199219 31.867188 123.199219 37.199219 "/>
<g clip-path="url(#clip1)" clip-rule="nonzero">
<path style=" stroke:none;fill-rule:nonzero;fill:rgb(0%,0%,0%);fill-opacity:1;" d="M 331.199219 76.667969 C 330.667969 72.933594 329.601563 69.199219 328.53125 65.464844 C 326.398438 58.53125 320 53.734375 313.066406 53.734375 C 306.132813 54.800781 300.265625 59.601563 298.667969 66.53125 C 298.667969 67.066406 298.132813 67.601563 298.132813 68.132813 C 298.132813 73.464844 298.132813 78.265625 298.667969 83.066406 C 299.199219 88.933594 303.46875 93.734375 308.800781 94.800781 C 314.667969 96.398438 321.601563 94.800781 325.867188 90 C 329.066406 86.800781 331.199219 81.464844 331.199219 76.667969 Z M 269.867188 70.265625 C 269.332031 63.867188 269.867188 56.933594 271.46875 51.066406 C 274.667969 40.933594 283.734375 34 293.867188 32.933594 C 303.46875 31.335938 313.601563 32.933594 321.601563 38.800781 C 322.667969 39.335938 323.199219 39.867188 324.265625 40.398438 C 326.933594 42.53125 330.132813 42 332.265625 39.335938 C 332.265625 39.335938 332.265625 39.335938 332.800781 38.800781 C 339.734375 33.46875 349.332031 32.398438 357.332031 36.667969 C 362.667969 40.398438 364.265625 47.335938 362.132813 53.199219 C 358.398438 61.734375 357.867188 71.867188 360 80.933594 C 361.066406 87.332031 361.601563 93.734375 362.132813 99.597656 C 362.667969 106.53125 363.199219 113.46875 363.734375 120.398438 C 363.734375 127.332031 361.601563 134.265625 357.332031 139.601563 C 353.066406 144.933594 348.265625 149.199219 342.398438 152.398438 C 339.199219 154.53125 335.46875 155.066406 331.734375 153.46875 C 324.265625 150.265625 315.734375 150.265625 308.265625 152.933594 C 301.867188 155.066406 295.46875 155.601563 289.066406 154 C 280.53125 152.398438 273.066406 146.53125 269.867188 138.53125 C 267.734375 135.332031 267.734375 131.066406 270.398438 128.398438 C 273.066406 125.734375 277.332031 125.199219 280.53125 126.800781 C 281.601563 127.332031 282.667969 127.332031 283.199219 127.867188 C 284.265625 128.398438 284.800781 128.933594 285.867188 129.46875 C 294.398438 132.667969 303.46875 134.800781 312 137.46875 C 320 139.601563 327.46875 134.800781 329.601563 126.800781 C 329.601563 126.265625 330.132813 125.734375 330.132813 124.667969 C 330.667969 120.933594 330.667969 117.199219 330.667969 112.933594 C 330.667969 110.800781 329.066406 108.667969 326.933594 108.667969 C 326.398438 108.667969 325.332031 108.667969 324.800781 109.199219 C 321.601563 110.265625 318.933594 111.332031 315.734375 112.933594 C 310.398438 116.132813 304.53125 117.199219 298.667969 116.132813 C 290.132813 115.066406 283.199219 109.199219 280 100.667969 C 278.398438 95.867188 275.734375 91.601563 272.53125 87.332031 C 270.933594 85.199219 270.398438 83.066406 270.398438 80.398438 C 269.332031 78.265625 269.867188 74 269.867188 70.265625 "/>
</g>
<path style=" stroke:none;fill-rule:nonzero;fill:rgb(0%,0%,0%);fill-opacity:1;" d="M 190.398438 106 C 191.46875 106 192.53125 106 193.601563 106 C 201.066406 102.800781 208.53125 100.132813 215.46875 96.933594 C 218.132813 95.867188 218.667969 92.667969 217.601563 90 C 217.066406 89.464844 216.53125 88.933594 216 88.398438 C 212.265625 83.601563 206.398438 80.933594 200.53125 83.066406 C 198.398438 82.53125 195.734375 83.066406 193.601563 83.066406 C 190.933594 83.066406 188.265625 83.601563 185.601563 83.601563 C 180.265625 85.199219 177.066406 90.53125 178.132813 95.867188 C 178.132813 100.667969 181.867188 104.933594 186.667969 105.46875 C 188.265625 105.46875 189.332031 105.46875 190.398438 106 Z M 148.800781 98 C 148.800781 96.398438 148.800781 94.800781 148.800781 93.199219 C 148.265625 84.667969 154.132813 77.199219 162.667969 76.667969 C 164.265625 76.667969 165.332031 76.667969 166.933594 76.667969 C 168 76.667969 169.066406 76.667969 170.132813 77.199219 C 174.398438 78.265625 178.667969 77.199219 182.398438 74.53125 C 187.199219 70.800781 193.601563 68.667969 199.46875 68.667969 C 202.132813 68.667969 205.332031 68.132813 208 67.066406 C 213.332031 66 216.53125 60.132813 215.46875 54.800781 C 215.46875 51.066406 212.265625 48.398438 208.53125 48.398438 C 208.53125 48.398438 208.53125 48.398438 208 48.398438 C 197.867188 47.867188 187.734375 51.066406 179.734375 58 C 178.667969 59.066406 177.066406 60.132813 175.46875 60.132813 C 169.601563 60.132813 163.734375 59.601563 157.867188 58.53125 C 153.601563 58 150.398438 54.265625 150.933594 50 C 151.46875 47.335938 153.066406 45.199219 155.199219 44.132813 C 164.265625 36.132813 176.53125 32.933594 188.265625 34 C 194.667969 35.066406 201.601563 35.066406 208 33.46875 C 223.46875 31.867188 238.398438 42 241.601563 57.464844 C 242.132813 60.132813 241.601563 63.332031 240.53125 66 C 238.398438 71.867188 238.933594 78.265625 241.601563 84.132813 C 242.667969 86.800781 242.667969 90 242.132813 93.199219 C 241.066406 98 241.066406 102.800781 242.132813 107.601563 C 243.734375 111.867188 241.601563 117.199219 237.332031 118.800781 C 235.734375 119.332031 234.132813 119.332031 233.066406 119.332031 C 229.867188 119.332031 226.667969 119.332031 223.46875 119.332031 C 219.734375 119.867188 216 118.800781 213.332031 116.132813 C 211.199219 114 208 113.46875 205.867188 115.601563 C 204.800781 116.667969 203.734375 117.199219 202.132813 117.734375 C 192.53125 119.867188 182.398438 122 172.800781 123.066406 C 168.53125 123.066406 164.265625 122.53125 160.53125 120.398438 C 153.601563 118.265625 148.800781 111.332031 149.332031 103.867188 C 148.800781 101.734375 148.800781 99.597656 148.800781 98 "/>
<path style=" stroke:none;fill-rule:nonzero;fill:rgb(0%,0%,0%);fill-opacity:1;" d="M 509.332031 79.867188 C 509.867188 73.464844 508.800781 67.066406 505.601563 61.734375 C 501.867188 54.265625 492.265625 51.066406 484.800781 54.800781 C 483.199219 55.867188 481.601563 56.933594 480 58.53125 C 471.46875 69.199219 470.398438 84.132813 477.332031 95.867188 C 482.132813 101.734375 489.601563 103.867188 496.53125 101.734375 C 503.46875 99.597656 508.265625 93.734375 508.800781 86.265625 C 509.332031 83.601563 509.332031 81.464844 509.332031 79.867188 Z M 542.933594 76.132813 C 542.398438 85.199219 540.265625 93.734375 536.53125 101.734375 C 533.867188 106.53125 529.601563 110.800781 524.800781 113.46875 C 521.601563 115.601563 517.867188 116.132813 514.132813 115.066406 C 510.398438 113.46875 505.601563 114.53125 502.933594 117.734375 C 499.734375 120.933594 495.46875 122 491.199219 120.398438 C 485.867188 119.332031 480.53125 118.800781 474.667969 118.800781 C 470.398438 118.800781 466.667969 117.199219 463.46875 114.53125 C 459.199219 111.332031 454.933594 108.132813 450.667969 105.46875 C 448 103.867188 446.398438 100.667969 445.867188 97.464844 C 445.332031 91.066406 444.265625 84.667969 441.601563 78.800781 C 438.933594 70.800781 440.53125 62.800781 445.867188 56.398438 C 446.398438 55.332031 448 54.265625 449.066406 53.734375 C 453.867188 52.132813 458.132813 48.933594 460.265625 44.132813 C 462.933594 37.734375 469.867188 34 476.800781 36.132813 C 477.867188 36.664063 479.46875 36.664063 480.53125 36.132813 C 489.601563 35.066406 498.132813 35.066406 507.199219 36.132813 C 520 36.132813 531.734375 43.601563 537.066406 55.332031 C 540.800781 62.265625 542.933594 69.199219 542.933594 76.132813 "/>
<path style=" stroke:none;fill-rule:nonzero;fill:rgb(0%,0%,0%);fill-opacity:1;" d="M 603.199219 31.867188 C 610.132813 32.398438 617.066406 32.933594 624 34.53125 C 628.265625 35.601563 632 37.199219 635.734375 39.867188 C 637.867188 41.46875 639.46875 43.066406 640.53125 45.199219 C 642.667969 47.867188 642.132813 51.601563 639.46875 53.199219 C 638.398438 53.734375 637.332031 54.265625 636.265625 54.265625 C 628.265625 57.464844 619.199219 56.933594 612.265625 52.664063 C 609.601563 51.066406 606.933594 50 603.734375 49.46875 C 600 48.398438 596.265625 49.46875 593.066406 51.601563 C 590.398438 53.199219 589.332031 56.933594 590.933594 59.601563 C 591.46875 60.667969 592 61.199219 593.066406 61.734375 C 593.601563 62.265625 594.667969 62.800781 595.734375 63.332031 C 602.667969 66 610.132813 67.601563 617.601563 68.132813 C 621.867188 68.132813 626.667969 69.199219 630.398438 71.867188 C 633.601563 74 636.800781 75.601563 640 77.199219 C 645.867188 79.867188 649.066406 85.199219 649.066406 91.601563 C 648.53125 105.46875 643.199219 114.53125 629.867188 116.667969 C 624.53125 117.199219 619.734375 118.265625 615.46875 120.933594 C 613.867188 121.46875 612.265625 122 610.667969 122 C 606.398438 122.53125 601.601563 122.53125 597.332031 123.066406 C 587.199219 122.53125 577.066406 119.332031 567.46875 114.53125 C 566.398438 114 565.332031 112.933594 564.800781 111.867188 C 561.066406 109.734375 560.53125 104.933594 562.667969 101.199219 C 563.734375 99.066406 565.867188 98 568.53125 98 C 573.867188 96.933594 579.734375 96.398438 585.601563 96.933594 C 588.800781 97.464844 591.46875 99.597656 593.066406 101.734375 C 597.332031 106 603.734375 107.601563 609.601563 106.53125 C 612.265625 106 614.933594 105.46875 617.066406 103.867188 C 620.265625 102.265625 621.867188 98 620.265625 94.800781 C 619.734375 93.199219 618.132813 92.132813 616.53125 91.601563 C 615.46875 91.066406 614.398438 91.066406 613.332031 90.53125 C 609.601563 88.933594 605.867188 87.332031 602.132813 85.734375 C 597.332031 82.53125 591.46875 81.464844 585.601563 82 C 575.46875 83.601563 565.867188 77.734375 562.667969 68.667969 C 559.46875 59.066406 562.667969 48.398438 570.667969 42.53125 C 577.601563 36.667969 586.667969 33.46875 595.734375 33.46875 C 597.332031 32.933594 600 32.398438 603.199219 31.867188 "/>
<path style=" stroke:none;fill-rule:nonzero;fill:rgb(0%,0%,0%);fill-opacity:1;" d="M 417.601563 68.667969 C 417.601563 71.332031 417.601563 74 417.601563 76.667969 C 418.132813 87.332031 419.734375 98 419.734375 108.667969 C 420.265625 115.066406 416 120.933594 409.066406 121.46875 C 408 121.46875 406.933594 121.46875 405.867188 121.46875 C 395.199219 121.46875 386.667969 113.46875 386.667969 102.800781 C 386.667969 99.597656 387.199219 96.398438 388.800781 93.199219 C 391.46875 87.332031 392 81.464844 390.398438 75.066406 C 388.800781 66.53125 387.734375 58 386.667969 48.933594 C 386.667969 46.800781 386.667969 44.664063 387.199219 42 C 387.734375 37.199219 392 34 396.800781 34 C 400.53125 34 404.800781 34 408.53125 34 C 414.398438 34 419.199219 38.800781 418.667969 44.664063 L 418.667969 45.199219 C 418.667969 47.867188 418.667969 50 418.667969 52.664063 C 419.734375 53.734375 418.132813 63.867188 417.601563 68.667969 "/>
<path style=" stroke:none;fill-rule:nonzero;fill:rgb(0%,0%,0%);fill-opacity:1;" d="M 404.265625 0.398438 L 405.867188 0.398438 C 411.734375 -0.132813 417.066406 4.132813 417.601563 10 C 418.132813 12.667969 417.066406 15.867188 415.46875 18 C 414.398438 20.132813 411.734375 21.734375 409.601563 21.734375 C 405.332031 21.734375 401.601563 21.734375 397.332031 21.199219 C 392.53125 21.199219 388.800781 16.933594 388.800781 12.667969 C 388.800781 12.132813 388.800781 12.132813 388.800781 11.601563 C 388.800781 6.265625 393.066406 1.46875 398.398438 0.398438 C 400.53125 -0.132813 402.132813 -0.132813 404.265625 0.398438 "/>
<g clip-path="url(#clip2)" clip-rule="nonzero">
<path style=" stroke:none;fill-rule:nonzero;fill:rgb(0%,0%,0%);fill-opacity:1;" d="M 664.53125 43.066406 C 657.601563 43.066406 652.265625 37.734375 652.265625 30.800781 C 652.265625 23.867188 657.601563 18.53125 664.53125 18.53125 C 671.46875 18.53125 676.800781 23.867188 676.800781 30.800781 C 676.800781 37.734375 671.46875 43.066406 664.53125 43.066406 Z M 664.53125 15.867188 C 656.53125 15.867188 649.601563 22.265625 649.601563 30.800781 C 649.601563 39.335938 656 45.734375 664.53125 45.734375 C 672.53125 45.734375 679.46875 39.335938 679.46875 30.800781 C 679.46875 22.800781 672.53125 15.867188 664.53125 15.867188 Z M 666.132813 28.132813 C 666.132813 28.664063 665.601563 28.664063 665.601563 28.664063 C 665.066406 28.664063 665.066406 28.664063 664.53125 28.664063 L 662.933594 28.664063 L 662.933594 24.933594 L 664.53125 24.933594 C 665.066406 24.933594 665.601563 24.933594 666.132813 25.46875 C 666.667969 26 666.667969 26.53125 666.667969 26.53125 C 666.667969 27.601563 666.667969 28.132813 666.132813 28.132813 Z M 669.332031 33.46875 C 669.332031 32.933594 668.800781 32.933594 668.800781 32.398438 C 668.265625 31.867188 668.265625 31.867188 667.734375 31.867188 C 668.265625 31.867188 668.800781 31.335938 669.332031 31.335938 C 669.867188 30.800781 670.398438 30.265625 670.933594 29.734375 C 671.46875 29.199219 671.46875 28.132813 671.46875 27.066406 C 671.46875 26 671.46875 24.933594 670.933594 24.398438 C 670.398438 23.867188 669.867188 23.335938 669.332031 22.800781 C 668.265625 22.265625 667.199219 22.265625 666.132813 22.265625 L 659.199219 22.265625 L 659.199219 39.335938 L 663.46875 39.335938 L 663.46875 32.398438 L 664 32.398438 C 664.53125 32.398438 664.53125 32.398438 665.066406 32.933594 C 665.601563 33.46875 665.601563 34 665.601563 34 L 667.734375 39.335938 L 672.53125 39.335938 L 670.398438 34.53125 C 669.867188 34 669.332031 33.46875 669.332031 33.46875 "/>
</g>
</g>
</svg>
